<mxfile host="app.diagrams.net" agent="Mozilla/5.0 (Windows NT 10.0; Win64; x64) AppleWebKit/537.36 (KHTML, like Gecko) Chrome/131.0.0.0 Safari/537.36" version="25.0.3">
  <diagram name="Página-1" id="tMEC8bxYNLmLIH76jBIq">
    <mxGraphModel dx="1434" dy="780" grid="1" gridSize="10" guides="1" tooltips="1" connect="1" arrows="1" fold="1" page="1" pageScale="1" pageWidth="3300" pageHeight="4681" math="0" shadow="0">
      <root>
        <mxCell id="0" />
        <mxCell id="1" parent="0" />
        <mxCell id="3jZIGGD9YUSOauvwJH9l-2" value="" style="endArrow=classic;html=1;rounded=0;" parent="1" edge="1">
          <mxGeometry width="50" height="50" relative="1" as="geometry">
            <mxPoint x="250" y="500" as="sourcePoint" />
            <mxPoint x="451.3079395129032" y="403.3721890338061" as="targetPoint" />
          </mxGeometry>
        </mxCell>
        <mxCell id="3jZIGGD9YUSOauvwJH9l-4" value="Ingresar la informacion" style="ellipse;whiteSpace=wrap;html=1;" parent="1" vertex="1">
          <mxGeometry x="450" y="360" width="140" height="70" as="geometry" />
        </mxCell>
        <mxCell id="3jZIGGD9YUSOauvwJH9l-5" value="Usuario previamente registrado" style="shape=umlActor;verticalLabelPosition=bottom;verticalAlign=top;html=1;outlineConnect=0;" parent="1" vertex="1">
          <mxGeometry x="210" y="480" width="30" height="60" as="geometry" />
        </mxCell>
        <mxCell id="3jZIGGD9YUSOauvwJH9l-6" value="Sistema" style="shape=umlActor;verticalLabelPosition=bottom;verticalAlign=top;html=1;outlineConnect=0;" parent="1" vertex="1">
          <mxGeometry x="830" y="470" width="30" height="60" as="geometry" />
        </mxCell>
        <mxCell id="3jZIGGD9YUSOauvwJH9l-7" value="" style="endArrow=classic;html=1;rounded=0;" parent="1" edge="1">
          <mxGeometry width="50" height="50" relative="1" as="geometry">
            <mxPoint x="590" y="400" as="sourcePoint" />
            <mxPoint x="800" y="490" as="targetPoint" />
          </mxGeometry>
        </mxCell>
        <mxCell id="3jZIGGD9YUSOauvwJH9l-8" value="" style="endArrow=classic;html=1;rounded=0;" parent="1" target="3jZIGGD9YUSOauvwJH9l-9" edge="1">
          <mxGeometry width="50" height="50" relative="1" as="geometry">
            <mxPoint x="800" y="500" as="sourcePoint" />
            <mxPoint x="590" y="500" as="targetPoint" />
          </mxGeometry>
        </mxCell>
        <mxCell id="3jZIGGD9YUSOauvwJH9l-9" value="Búsqueda en la base de datos y corroborar información" style="ellipse;whiteSpace=wrap;html=1;" parent="1" vertex="1">
          <mxGeometry x="440" y="460" width="150" height="70" as="geometry" />
        </mxCell>
        <mxCell id="3jZIGGD9YUSOauvwJH9l-10" value="" style="html=1;verticalAlign=bottom;endArrow=block;curved=0;rounded=0;" parent="1" edge="1">
          <mxGeometry width="80" relative="1" as="geometry">
            <mxPoint x="800" y="510" as="sourcePoint" />
            <mxPoint x="590" y="600" as="targetPoint" />
          </mxGeometry>
        </mxCell>
        <mxCell id="3jZIGGD9YUSOauvwJH9l-11" value="Concede permisos&amp;nbsp;" style="ellipse;whiteSpace=wrap;html=1;" parent="1" vertex="1">
          <mxGeometry x="440" y="570" width="150" height="70" as="geometry" />
        </mxCell>
        <mxCell id="3jZIGGD9YUSOauvwJH9l-12" value="" style="endArrow=classic;html=1;rounded=0;exitX=0;exitY=0.429;exitDx=0;exitDy=0;exitPerimeter=0;" parent="1" source="3jZIGGD9YUSOauvwJH9l-11" edge="1">
          <mxGeometry width="50" height="50" relative="1" as="geometry">
            <mxPoint x="450" y="550" as="sourcePoint" />
            <mxPoint x="240" y="570" as="targetPoint" />
          </mxGeometry>
        </mxCell>
        <mxCell id="3jZIGGD9YUSOauvwJH9l-13" value="Envía mensaje de acceso satisfactorio&amp;nbsp;" style="ellipse;whiteSpace=wrap;html=1;" parent="1" vertex="1">
          <mxGeometry x="445" y="680" width="150" height="70" as="geometry" />
        </mxCell>
        <mxCell id="3jZIGGD9YUSOauvwJH9l-14" value="" style="html=1;verticalAlign=bottom;endArrow=block;curved=0;rounded=0;entryX=1;entryY=0.5;entryDx=0;entryDy=0;" parent="1" target="3jZIGGD9YUSOauvwJH9l-13" edge="1">
          <mxGeometry width="80" relative="1" as="geometry">
            <mxPoint x="800" y="520" as="sourcePoint" />
            <mxPoint x="610" y="680" as="targetPoint" />
          </mxGeometry>
        </mxCell>
        <mxCell id="3jZIGGD9YUSOauvwJH9l-15" value="" style="html=1;verticalAlign=bottom;endArrow=block;curved=0;rounded=0;exitX=0;exitY=0.5;exitDx=0;exitDy=0;" parent="1" source="3jZIGGD9YUSOauvwJH9l-13" edge="1">
          <mxGeometry width="80" relative="1" as="geometry">
            <mxPoint x="440" y="710" as="sourcePoint" />
            <mxPoint x="240" y="580" as="targetPoint" />
          </mxGeometry>
        </mxCell>
      </root>
    </mxGraphModel>
  </diagram>
</mxfile>
